<?xml version="1.0" encoding="UTF-8"?>
<!DOCTYPE svg PUBLIC "-//W3C//DTD SVG 1.1//EN" "http://www.w3.org/Graphics/SVG/1.1/DTD/svg11.dtd">
<!-- Creator: CorelDRAW 2019 (64 Bit) -->
<svg xmlns="http://www.w3.org/2000/svg" xml:space="preserve" width="96.0908mm" height="34.6831mm" version="1.1" style="shape-rendering:geometricPrecision; text-rendering:geometricPrecision; image-rendering:optimizeQuality; fill-rule:evenodd; clip-rule:evenodd"
viewBox="0 0 931.79 336.32"
 xmlns:xlink="http://www.w3.org/1999/xlink">
 <defs>
  <style type="text/css">
   <![CDATA[
    .fil3 {fill:#FEFEFE;fill-rule:nonzero}
    .fil4 {fill:#E6E7E8;fill-rule:nonzero}
    .fil0 {fill:#4B4B4D;fill-rule:nonzero}
    .fil2 {fill:#52A078;fill-rule:nonzero}
    .fil1 {fill:#4F8F6D;fill-rule:nonzero}
   ]]>
  </style>
 </defs>
 <g id="Camada_x0020_1">
  <metadata id="CorelCorpID_0Corel-Layer"/>
  <path class="fil0" d="M659.14 69.6l-79.62 0c-1.57,0 -2.87,0.45 -3.88,1.32 -0.79,0.7 -1.4,1.39 -1.98,2.31 -0.51,1.02 -0.76,2.08 -0.76,3.15l0 187.02c0,4.03 3.2,7.31 7.13,7.31l79.08 0c1.52,0 2.68,-0.29 3.54,-0.9 1,-0.68 1.67,-1.91 2.06,-3.78 0.3,-1.44 0.49,-3.53 0.59,-6.4 0.06,-1.63 0.1,-3.66 0.12,-6.07 0.02,-1.98 -0.72,-3.83 -2.07,-5.23 -1.35,-1.4 -3.14,-2.16 -5.05,-2.16l-58.98 0 0 -72.05 60.02 0c1.63,0 2.92,-0.48 3.84,-1.43 0.85,-0.87 1.42,-2.22 1.77,-4.14 0.3,-1.65 0.45,-3.89 0.45,-6.85l0 -5.39c0,-4.03 -3.2,-7.3 -7.13,-7.3l-58.96 0 0 -54.87 60.89 0c1.51,0 2.67,-0.29 3.55,-0.9 1.02,-0.7 1.67,-1.95 2.06,-3.94 0.3,-1.55 0.45,-3.7 0.45,-6.59l0 -5.81c0,-4.03 -3.2,-7.31 -7.13,-7.31z"/>
  <path class="fil0" d="M924.66 69.6l-79.62 0c-1.57,0 -2.87,0.45 -3.88,1.32 -0.79,0.7 -1.4,1.39 -1.98,2.31 -0.51,1.02 -0.76,2.08 -0.76,3.15l0 187.02c0,4.03 3.2,7.31 7.13,7.31l79.08 0c1.52,0 2.68,-0.29 3.54,-0.9 1,-0.68 1.67,-1.91 2.07,-3.78 0.3,-1.44 0.49,-3.53 0.59,-6.4 0.05,-1.63 0.09,-3.66 0.12,-6.07 0.02,-1.98 -0.72,-3.83 -2.07,-5.23 -1.35,-1.4 -3.14,-2.16 -5.05,-2.16l-58.98 0 0 -72.05 60.02 0c1.63,0 2.92,-0.48 3.84,-1.43 0.85,-0.87 1.42,-2.22 1.77,-4.14 0.3,-1.65 0.45,-3.89 0.45,-6.85l0 -5.39c0,-4.03 -3.2,-7.3 -7.13,-7.3l-58.96 0 0 -54.87 60.89 0c1.51,0 2.67,-0.29 3.55,-0.9 1.02,-0.7 1.67,-1.95 2.06,-3.94 0.3,-1.55 0.45,-3.7 0.45,-6.59l0 -5.81c0,-4.03 -3.2,-7.31 -7.13,-7.31z"/>
  <path class="fil0" d="M392.47 151.45l-46.99 0.16c-4.02,0 -7.27,3.26 -7.27,7.28l0 28.92c0,3.83 2.69,6.93 6,6.93l15.72 0 0 -20.45 12.31 0 0 65.51c-0.61,0.61 -1.89,1.62 -4.58,3.15 -2.53,1.44 -6.3,2.17 -11.23,2.17 -4.65,0 -8.89,-0.73 -12.63,-2.18 -3.5,-1.35 -6.52,-4.44 -8.97,-9.18 -2.59,-5.03 -4.62,-12.38 -6.03,-21.84 -1.43,-9.57 -2.16,-22.61 -2.16,-38.75 0,-15.24 0.83,-28.13 2.46,-38.32 1.61,-10.08 4.12,-18.23 7.69,-24.09 12.39,-20.34 48.47,-8.19 49.82,-7.61 2.21,0.93 4.74,0.92 6.94,-0.02 2.16,-0.92 4.19,-7.88 4.75,-10 0.65,-2.5 0.99,-5.15 0.99,-7.85 0,-4.42 -3.31,-8.23 -9.85,-11.33 -6.09,-2.89 -14.69,-4.35 -25.56,-4.35 -10.55,0 -20.15,1.38 -28.54,4.1 -8.58,2.79 -15.94,8.17 -21.86,15.99 -5.82,7.68 -10.37,18.49 -13.52,32.14 -3.12,13.52 -4.7,31.26 -4.7,52.71 0,19.25 1.11,35.24 3.29,47.54 2.21,12.46 5.75,22.4 10.52,29.53 4.89,7.31 11.37,12.39 19.26,15.1 7.67,2.64 16.92,3.97 27.49,3.97 11.01,0 20.23,-1.39 27.41,-4.14 7.1,-2.72 12.57,-5.55 16.26,-8.43l0.74 -0.58 0.3 -98.95c0.01,-1.91 -0.82,-3.7 -2.35,-5.05 -1.52,-1.35 -3.54,-2.09 -5.7,-2.09z"/>
  <path class="fil0" d="M509.91 204.3c-0.9,9.5 -2.39,17.39 -4.44,23.46 -1.97,5.84 -4.54,10.07 -7.62,12.57 -3.07,2.48 -6.76,3.69 -11.28,3.69 -4.46,0 -8.16,-1.19 -10.98,-3.54 -2.91,-2.41 -5.35,-6.37 -7.23,-11.78 -1.95,-5.58 -3.35,-12.86 -4.16,-21.65 -0.82,-8.88 -1.23,-19.81 -1.23,-32.51 0,-14.69 0.5,-27.24 1.5,-37.3 0.98,-9.95 2.57,-18.12 4.71,-24.27 2.07,-5.95 4.69,-10.29 7.79,-12.88 3.05,-2.56 6.64,-3.81 10.97,-3.81 4.46,0 8.17,1.15 11.01,3.42 2.89,2.31 5.26,6.3 7.06,11.85 1.87,5.78 3.23,13.4 4.03,22.64 0.81,9.32 1.22,20.95 1.22,34.57 0,13.95 -0.46,25.9 -1.36,35.52zm18.21 -113.18c-4.02,-7.75 -9.39,-13.35 -15.96,-16.64 -6.47,-3.24 -14.44,-4.87 -23.67,-4.87 -9.06,0 -17.11,1.73 -23.94,5.15 -6.9,3.45 -12.72,9.21 -17.29,17.11 -4.49,7.77 -7.85,18.11 -9.98,30.72 -2.11,12.49 -3.19,28.13 -3.19,46.47 0,19.78 0.93,36.32 2.76,49.16 1.85,12.98 4.83,23.49 8.85,31.24 4.13,7.96 9.61,13.57 16.3,16.66 6.54,3.03 14.44,4.58 23.47,4.58 9.25,0 17.4,-1.79 24.23,-5.3 6.91,-3.55 12.64,-9.5 17.04,-17.71 4.29,-8.02 7.5,-18.67 9.54,-31.65 2.02,-12.87 3.04,-28.96 3.04,-47.82 0,-18.48 -0.88,-34.18 -2.63,-46.68 -1.76,-12.62 -4.65,-22.85 -8.58,-30.43z"/>
  <path class="fil0" d="M773.11 204.38c-1.53,11.51 -3.56,20.43 -6.05,26.53 -2.38,5.84 -5.11,9.68 -8.09,11.43 -3.08,1.79 -6.23,2.7 -9.34,2.7l-23.66 -0.04 0.04 -150.3 23.9 0c4.23,0 8,0.87 11.18,2.59 3.08,1.67 5.71,4.78 7.81,9.24 2.19,4.67 3.84,11.2 4.91,19.4 1.08,8.3 1.63,19.01 1.63,31.84 0,19.32 -0.78,35.01 -2.32,46.62zm18.09 -115.33c-4.69,-7.06 -10.66,-12.13 -17.77,-15.09 -6.98,-2.9 -15.17,-4.37 -24.35,-4.37l-39.89 0c-3.74,0 -6.09,0.63 -7.42,1.99 -1.29,1.32 -1.94,3.12 -1.94,5.35l0 185.08c0,4.79 3.8,8.69 8.47,8.69l41.05 0c8.7,0 16.63,-1.87 23.56,-5.58 7,-3.73 12.95,-10.06 17.7,-18.82 4.66,-8.61 8.24,-20.09 10.65,-34.14 2.39,-13.97 3.6,-31.51 3.6,-52.16 0,-17.12 -1.12,-31.61 -3.34,-43.05 -2.23,-11.57 -5.71,-20.96 -10.32,-27.91z"/>
  <path class="fil1" d="M220.19 336.32l-209.55 0c-5.88,0 -10.64,-4.77 -10.64,-10.64l0 -315.03c0,-5.88 4.77,-10.64 10.64,-10.64l209.55 0c5.88,0 10.64,4.77 10.64,10.64l0 315.03c0,5.88 -4.77,10.64 -10.64,10.64z"/>
  <path class="fil2" d="M230.83 14.67c0,-8.1 -6.57,-14.67 -14.67,-14.67l-201.5 0c-8.1,0 -14.67,6.57 -14.67,14.67l0 153.49 230.83 0 0 -153.49z"/>
  <path class="fil3" d="M161.57 127.3c-1.39,-1.23 -3.24,-1.92 -5.22,-1.92l-29.72 0 -2.09 0 -9.54 0c-3.5,0 -6.34,2.84 -6.34,6.34l0 81.01c0,3.5 2.84,6.34 6.34,6.34l11.63 0 0 -72.8 11.23 0 0 122.58c-0.56,0.55 -1.73,1.48 -4.19,2.88 -2.31,1.31 -5.77,1.98 -10.27,1.98 -4.25,0 -8.13,-0.67 -11.55,-1.99 -3.21,-1.24 -5.97,-4.06 -8.2,-8.4 -2.37,-4.6 -4.22,-11.32 -5.51,-19.97 -1.31,-8.76 -1.97,-20.68 -1.97,-35.44 0,-3.49 -0.09,-12.78 -0.18,-24.78 -0.12,-19.15 0.18,-50.29 0.18,-54.72 0,-14.76 0.66,-26.68 1.97,-35.44 1.29,-8.65 3.14,-15.37 5.51,-19.97 2.23,-4.34 5,-7.17 8.2,-8.4 3.41,-1.32 7.29,-1.99 11.55,-1.99 4.5,0 7.96,0.67 10.27,1.98 2.46,1.4 3.63,2.33 4.19,2.88l0 32.8c0,4.04 3.23,7.32 7.27,7.4 6.16,0.12 12.33,0.26 18.49,0.43l-0.17 -56.86 -0.68 -0.53c-3.37,-2.63 -8.38,-5.22 -14.87,-7.71 -6.57,-2.51 -15,-3.79 -25.07,-3.79 -9.66,0 -18.12,1.22 -25.14,3.64 -7.22,2.48 -13.14,7.13 -17.61,13.81 -4.37,6.53 -7.61,15.61 -9.63,27.01 -1.99,11.25 -3,25.88 -3,43.48 -0.54,21.78 -0.3,38.57 -0.12,62.98 0.01,13.24 0.04,24.12 0.12,28.94 0.04,0 0.08,-0.03 0.13,-0.03 0.32,13.25 1.27,24.54 2.88,33.61 2.02,11.39 5.26,20.48 9.63,27.01 4.47,6.69 10.39,11.33 17.61,13.81 7.02,2.41 15.48,3.64 25.14,3.64 10.07,0 18.5,-1.28 25.07,-3.79 6.49,-2.49 11.49,-5.08 14.87,-7.71l0.68 -0.53 0.27 -153.17c0,-1.74 -0.76,-3.38 -2.15,-4.62z"/>
  <path class="fil4" d="M137.85 168.16l0 100.69c-0.56,0.55 -1.72,1.48 -4.19,2.88 -2.31,1.31 -5.76,1.98 -10.27,1.98 -4.25,0 -8.14,-0.67 -11.55,-1.99 -3.21,-1.24 -5.97,-4.06 -8.2,-8.4 -2.37,-4.6 -4.22,-11.32 -5.51,-19.97 -1.31,-8.76 -1.97,-20.68 -1.97,-35.44 0,-3.49 -0.1,-12.78 -0.19,-24.78 -0.03,-4.49 -0.03,-9.65 -0.02,-14.97l-28.79 0c0.04,6.81 0.11,13.96 0.16,21.97 0.01,13.24 0.04,24.12 0.12,28.94 0.04,0 0.09,-0.03 0.13,-0.03 0.31,13.25 1.27,24.54 2.88,33.61 2.02,11.4 5.26,20.48 9.62,27.01 4.47,6.69 10.4,11.33 17.61,13.81 7.02,2.41 15.47,3.64 25.14,3.64 10.07,0 18.5,-1.28 25.07,-3.79 6.49,-2.48 11.49,-5.08 14.87,-7.71l0.68 -0.53 0.21 -116.92 -25.8 0z"/>
  <path class="fil4" d="M115 219.07l11.63 0 0 -50.91 -17.97 0 0 44.57c0,3.5 2.84,6.34 6.34,6.34z"/>
 </g>
</svg>
