<?xml version="1.0" encoding="UTF-8"?>
<!DOCTYPE svg PUBLIC "-//W3C//DTD SVG 1.1//EN" "http://www.w3.org/Graphics/SVG/1.1/DTD/svg11.dtd">
<!-- Creator: CorelDRAW -->
<svg xmlns="http://www.w3.org/2000/svg" xml:space="preserve" width="89.4069mm" height="28.6753mm" version="1.1" style="shape-rendering:geometricPrecision; text-rendering:geometricPrecision; image-rendering:optimizeQuality; fill-rule:evenodd; clip-rule:evenodd"
viewBox="0 0 1049.95 336.75"
 xmlns:xlink="http://www.w3.org/1999/xlink"
 xmlns:xodm="http://www.corel.com/coreldraw/odm/2003">
 <defs>
  <style type="text/css">
   <![CDATA[
    .fil0 {fill:#FEFEFE;fill-rule:nonzero}
    .fil3 {fill:#E6E7E8;fill-rule:nonzero}
    .fil2 {fill:#52A078;fill-rule:nonzero}
    .fil1 {fill:#4F8F6D;fill-rule:nonzero}
   ]]>
  </style>
 </defs>
 <g id="Camada_x0020_1">
  <metadata id="CorelCorpID_0Corel-Layer"/>
  <g id="_1684333657072">
   <path class="fil0" d="M726.27 49l-94.53 0c-1.86,0 -3.41,0.53 -4.6,1.57 -0.95,0.83 -1.67,1.64 -2.35,2.74 -0.6,1.22 -0.9,2.47 -0.9,3.74l0 222.02c0,4.78 3.79,8.67 8.46,8.67l93.88 0c1.8,0 3.18,-0.35 4.21,-1.06 1.18,-0.8 1.98,-2.27 2.45,-4.49 0.36,-1.71 0.58,-4.19 0.7,-7.6 0.06,-1.94 0.11,-4.34 0.14,-7.2 0.02,-2.35 -0.85,-4.55 -2.46,-6.21 -1.6,-1.66 -3.73,-2.57 -6,-2.57l-70.02 0 0 -85.53 71.26 0c1.93,0 3.47,-0.57 4.56,-1.7 1.01,-1.03 1.69,-2.63 2.1,-4.91 0.36,-1.96 0.53,-4.62 0.53,-8.12l0 -6.4c0,-4.78 -3.79,-8.67 -8.46,-8.67l-69.99 0 0 -65.14 72.29 0c1.79,0 3.17,-0.35 4.22,-1.07 1.21,-0.83 1.98,-2.32 2.44,-4.67 0.36,-1.83 0.53,-4.39 0.53,-7.82l0 -6.89c0,-4.78 -3.79,-8.67 -8.46,-8.67z"/>
   <path class="fil0" d="M1041.49 49l-94.53 0c-1.86,0 -3.41,0.53 -4.6,1.57 -0.94,0.83 -1.67,1.64 -2.35,2.74 -0.6,1.22 -0.9,2.47 -0.9,3.74l0 222.02c0,4.78 3.8,8.67 8.46,8.67l93.88 0c1.8,0 3.18,-0.35 4.21,-1.06 1.18,-0.8 1.98,-2.27 2.45,-4.49 0.36,-1.71 0.58,-4.19 0.7,-7.6 0.06,-1.94 0.11,-4.34 0.14,-7.2 0.02,-2.35 -0.85,-4.55 -2.46,-6.21 -1.6,-1.66 -3.73,-2.57 -6,-2.57l-70.02 0 0 -85.53 71.26 0c1.93,0 3.47,-0.57 4.56,-1.7 1.01,-1.03 1.69,-2.63 2.1,-4.91 0.36,-1.96 0.53,-4.62 0.53,-8.12l0 -6.4c0,-4.78 -3.79,-8.67 -8.46,-8.67l-69.99 0 0 -65.14 72.29 0c1.79,0 3.17,-0.35 4.22,-1.07 1.21,-0.83 1.98,-2.32 2.44,-4.67 0.36,-1.83 0.53,-4.39 0.53,-7.82l0 -6.89c0,-4.78 -3.79,-8.67 -8.46,-8.67z"/>
   <path class="fil0" d="M409.7 146.18l-55.78 0.19c-4.77,0 -8.63,3.87 -8.63,8.64l0 34.34c0,4.54 3.19,8.22 7.12,8.22l18.66 0 0 -24.27 14.62 0 0 77.77c-0.72,0.72 -2.24,1.92 -5.44,3.74 -3,1.7 -7.49,2.56 -13.33,2.56 -5.52,0 -10.56,-0.87 -14.99,-2.58 -4.16,-1.6 -7.74,-5.27 -10.65,-10.9 -3.07,-5.97 -5.48,-14.69 -7.15,-25.92 -1.7,-11.36 -2.56,-26.84 -2.56,-46 0,-18.1 0.99,-33.4 2.93,-45.49 1.91,-11.96 4.89,-21.65 9.13,-28.6 14.71,-24.15 57.53,-9.72 59.14,-9.04 2.63,1.11 5.62,1.1 8.24,-0.02 2.56,-1.09 4.97,-9.35 5.63,-11.87 0.78,-2.97 1.17,-6.11 1.17,-9.33 0,-5.24 -3.94,-9.76 -11.7,-13.44 -7.23,-3.43 -17.45,-5.17 -30.35,-5.17 -12.52,0 -23.93,1.64 -33.88,4.87 -10.19,3.31 -18.92,9.69 -25.95,18.97 -6.91,9.11 -12.31,21.95 -16.05,38.16 -3.7,16.05 -5.58,37.11 -5.58,62.58 0,22.85 1.31,41.84 3.9,56.44 2.62,14.79 6.83,26.59 12.49,35.06 5.8,8.68 13.49,14.71 22.86,17.93 9.11,3.13 20.09,4.72 32.63,4.72 13.07,0 24.02,-1.66 32.55,-4.92 8.42,-3.22 14.92,-6.59 19.29,-10.01l0.88 -0.68 0.36 -117.47c0,-2.27 -0.98,-4.4 -2.79,-6 -1.81,-1.6 -4.21,-2.49 -6.77,-2.49z"/>
   <path class="fil0" d="M549.11 208.92c-1.07,11.28 -2.84,20.65 -5.27,27.85 -2.34,6.93 -5.39,11.95 -9.05,14.92 -3.64,2.95 -8.02,4.37 -13.38,4.37 -5.3,0 -9.68,-1.41 -13.04,-4.2 -3.46,-2.86 -6.35,-7.57 -8.59,-13.98 -2.32,-6.62 -3.98,-15.27 -4.93,-25.7 -0.97,-10.54 -1.46,-23.52 -1.46,-38.59 0,-17.43 0.6,-32.33 1.79,-44.28 1.17,-11.82 3.05,-21.51 5.59,-28.81 2.46,-7.07 5.57,-12.21 9.25,-15.29 3.63,-3.04 7.89,-4.52 13.02,-4.52 5.3,0 9.7,1.37 13.07,4.06 3.43,2.75 6.25,7.48 8.38,14.07 2.22,6.87 3.83,15.91 4.79,26.88 0.97,11.07 1.46,24.87 1.46,41.05 0,16.55 -0.54,30.74 -1.62,42.17zm21.62 -134.37c-4.77,-9.2 -11.14,-15.84 -18.94,-19.75 -7.68,-3.84 -17.14,-5.78 -28.1,-5.78 -10.75,0 -20.31,2.06 -28.42,6.11 -8.19,4.1 -15.1,10.93 -20.52,20.31 -5.34,9.23 -9.33,21.5 -11.86,36.47 -2.51,14.84 -3.78,33.4 -3.78,55.16 0,23.48 1.11,43.12 3.28,58.36 2.2,15.41 5.73,27.89 10.51,37.1 4.9,9.45 11.41,16.1 19.34,19.77 7.77,3.6 17.14,5.43 27.87,5.43 10.97,0 20.66,-2.12 28.77,-6.28 8.2,-4.21 15.01,-11.29 20.23,-21.02 5.09,-9.52 8.9,-22.16 11.33,-37.58 2.4,-15.27 3.61,-34.37 3.61,-56.77 0,-21.93 -1.05,-40.58 -3.12,-55.42 -2.1,-14.98 -5.52,-27.13 -10.18,-36.12z"/>
   <path class="fil0" d="M861.58 209.01c-1.81,13.66 -4.23,24.26 -7.18,31.5 -2.83,6.93 -6.07,11.5 -9.61,13.57 -3.65,2.13 -7.39,3.2 -11.09,3.2l-28.09 -0.05 0.05 -178.43 28.37 0c5.02,0 9.49,1.03 13.27,3.07 3.66,1.98 6.78,5.67 9.27,10.97 2.59,5.54 4.55,13.29 5.82,23.03 1.28,9.86 1.93,22.57 1.93,37.8 0,22.94 -0.92,41.56 -2.75,55.35zm21.47 -136.91c-5.56,-8.38 -12.66,-14.4 -21.09,-17.91 -8.28,-3.44 -18.01,-5.19 -28.9,-5.19l-47.35 0c-4.43,0 -7.23,0.75 -8.8,2.37 -1.53,1.57 -2.31,3.71 -2.31,6.35l0 219.72c0,5.68 4.52,10.31 10.06,10.31l48.73 0c10.33,0 19.74,-2.22 27.96,-6.62 8.31,-4.43 15.37,-11.95 21.01,-22.35 5.53,-10.22 9.79,-23.85 12.64,-40.53 2.84,-16.58 4.28,-37.41 4.28,-61.92 0,-20.33 -1.33,-37.53 -3.96,-51.11 -2.65,-13.73 -6.78,-24.88 -12.26,-33.13z"/>
   <path class="fil1" d="M218.24 336.75l-205.35 0c-7.12,0 -12.89,-5.77 -12.89,-12.89l0 -310.97c0,-7.12 5.77,-12.89 12.89,-12.89l205.35 0c7.12,0 12.89,5.77 12.89,12.89l0 310.97c0,7.12 -5.77,12.89 -12.89,12.89z"/>
   <path class="fil2" d="M231.13 14.69c0,-8.11 -6.58,-14.69 -14.69,-14.69l-201.76 0c-8.11,0 -14.69,6.57 -14.69,14.69l0 153.69 231.13 0 0 -153.69z"/>
   <path class="fil0" d="M161.78 127.46c-1.4,-1.24 -3.25,-1.92 -5.22,-1.92l-29.76 0 -2.1 0 -9.55 0c-3.5,0 -6.34,2.84 -6.34,6.35l0 81.11c0,3.5 2.84,6.35 6.34,6.35l11.65 0 0 -72.89 11.24 0 0 122.74c-0.56,0.56 -1.73,1.48 -4.19,2.88 -2.31,1.31 -5.78,1.98 -10.28,1.98 -4.26,0 -8.15,-0.67 -11.56,-1.99 -3.21,-1.23 -5.97,-4.06 -8.21,-8.41 -2.37,-4.6 -4.23,-11.33 -5.52,-19.99 -1.31,-8.77 -1.98,-20.71 -1.98,-35.49 0,-3.49 -0.09,-12.79 -0.19,-24.82 -0.12,-19.17 0.19,-50.35 0.19,-54.79 0,-14.78 0.66,-26.72 1.98,-35.48 1.29,-8.66 3.14,-15.39 5.52,-20 2.24,-4.35 5,-7.18 8.21,-8.41 3.42,-1.32 7.3,-1.99 11.56,-1.99 4.51,0 7.97,0.67 10.28,1.98 2.46,1.4 3.64,2.33 4.19,2.88l0 32.84c0,4.04 3.24,7.33 7.28,7.41 6.17,0.12 12.34,0.27 18.52,0.43l-0.18 -56.94 -0.68 -0.53c-3.38,-2.64 -8.39,-5.23 -14.88,-7.72 -6.58,-2.52 -15.02,-3.79 -25.11,-3.79 -9.67,0 -18.14,1.23 -25.17,3.64 -7.23,2.48 -13.16,7.14 -17.64,13.83 -4.37,6.53 -7.61,15.63 -9.64,27.04 -2,11.26 -3.01,25.91 -3.01,43.54 -0.54,21.81 -0.3,38.62 -0.12,63.06 0.01,13.26 0.04,24.15 0.12,28.98 0.04,-0 0.08,-0.03 0.12,-0.03 0.31,13.27 1.28,24.58 2.88,33.66 2.02,11.41 5.27,20.51 9.64,27.04 4.47,6.69 10.41,11.35 17.64,13.83 7.03,2.42 15.49,3.64 25.17,3.64 10.08,0 18.53,-1.27 25.11,-3.79 6.5,-2.48 11.51,-5.08 14.88,-7.72l0.68 -0.53 0.28 -153.36c0,-1.74 -0.76,-3.39 -2.15,-4.62z"/>
   <path class="fil3" d="M138.03 168.37l0 100.82c-0.56,0.56 -1.73,1.48 -4.19,2.88 -2.32,1.31 -5.78,1.98 -10.28,1.98 -4.26,0 -8.15,-0.67 -11.56,-1.99 -3.21,-1.24 -5.97,-4.06 -8.22,-8.41 -2.37,-4.61 -4.23,-11.33 -5.51,-19.99 -1.31,-8.77 -1.98,-20.71 -1.98,-35.49 0,-3.49 -0.1,-12.79 -0.19,-24.82 -0.03,-4.5 -0.03,-9.66 -0.02,-14.99l-28.83 0c0.04,6.82 0.1,13.98 0.16,22 0.01,13.26 0.04,24.15 0.12,28.97 0.04,0 0.09,-0.02 0.13,-0.03 0.31,13.27 1.27,24.58 2.88,33.66 2.02,11.41 5.27,20.51 9.64,27.04 4.47,6.7 10.41,11.35 17.63,13.83 7.03,2.41 15.49,3.64 25.17,3.64 10.08,0 18.53,-1.27 25.11,-3.79 6.5,-2.49 11.51,-5.08 14.88,-7.72l0.68 -0.53 0.21 -117.08 -25.83 0z"/>
   <path class="fil3" d="M115.15 219.35l11.64 0 0 -50.97 -17.99 0 0 44.63c0,3.51 2.84,6.35 6.35,6.35z"/>
  </g>
 </g>
</svg>
