<?xml version="1.0" encoding="UTF-8"?>
<!DOCTYPE svg PUBLIC "-//W3C//DTD SVG 1.1//EN" "http://www.w3.org/Graphics/SVG/1.1/DTD/svg11.dtd">
<!-- Creator: CorelDRAW 2019 (64 Bit) -->
<svg xmlns="http://www.w3.org/2000/svg" xml:space="preserve" width="23.8052mm" height="34.6828mm" version="1.1" style="shape-rendering:geometricPrecision; text-rendering:geometricPrecision; image-rendering:optimizeQuality; fill-rule:evenodd; clip-rule:evenodd"
viewBox="0 0 499.88 728.3"
 xmlns:xlink="http://www.w3.org/1999/xlink">
 <defs>
  <style type="text/css">
   <![CDATA[
    .fil0 {fill:#4F8F6D;fill-rule:nonzero}
    .fil1 {fill:#52A078;fill-rule:nonzero}
    .fil3 {fill:#E6E7E8;fill-rule:nonzero}
    .fil2 {fill:#FEFEFE;fill-rule:nonzero}
   ]]>
  </style>
 </defs>
 <g id="Camada_x0020_1">
  <metadata id="CorelCorpID_0Corel-Layer"/>
  <g id="_2428649406576">
   <path class="fil0" d="M476.84 728.3l-453.78 0c-12.73,0 -23.04,-10.33 -23.04,-23.04l0 -682.2c0,-12.73 10.33,-23.04 23.04,-23.04l453.78 0c12.73,0 23.04,10.33 23.04,23.04l0 682.2c0,12.73 -10.33,23.04 -23.04,23.04z"/>
   <path class="fil1" d="M499.88 31.77c0,-17.54 -14.23,-31.77 -31.77,-31.77l-436.35 0c-17.54,0 -31.77,14.23 -31.77,31.77l0 332.38 499.86 0 0 -332.38 0.02 0z"/>
   <path class="fil2" d="M349.9 275.67c-3.01,-2.66 -7.02,-4.16 -11.3,-4.16l-64.36 0 -4.53 0 -20.66 0c-7.58,0 -13.73,6.15 -13.73,13.73l0 175.43c0,7.58 6.15,13.73 13.73,13.73l25.18 0 0 -157.65 24.32 0 0 265.45c-1.21,1.19 -3.75,3.2 -9.07,6.24 -5,2.84 -12.49,4.29 -22.24,4.29 -9.2,0 -17.61,-1.45 -25.01,-4.31 -6.95,-2.69 -12.93,-8.79 -17.76,-18.19 -5.13,-9.96 -9.14,-24.51 -11.93,-43.25 -2.84,-18.97 -4.27,-44.78 -4.27,-76.74 0,-7.56 -0.2,-27.67 -0.39,-53.66 -0.26,-41.47 0.39,-108.9 0.39,-118.49 0,-31.96 1.43,-57.78 4.27,-76.74 2.79,-18.73 6.8,-33.28 11.93,-43.25 4.83,-9.4 10.83,-15.53 17.76,-18.19 7.39,-2.86 15.79,-4.31 25.01,-4.31 9.75,0 17.24,1.45 22.24,4.29 5.33,3.03 7.86,5.05 9.07,6.24l0 71.03c0,8.75 6.99,15.85 15.74,16.02 13.34,0.26 26.7,0.56 40.04,0.93l-0.37 -123.13 -1.47 -1.15c-7.3,-5.69 -18.15,-11.3 -32.2,-16.7 -14.23,-5.43 -32.48,-8.21 -54.29,-8.21 -20.92,0 -39.24,2.64 -54.44,7.88 -15.64,5.37 -28.46,15.44 -38.13,29.91 -9.46,14.14 -16.48,33.8 -20.85,58.49 -4.31,24.36 -6.5,56.04 -6.5,94.16 -1.17,47.17 -0.65,83.52 -0.26,136.38 0.02,28.67 0.09,52.23 0.26,62.67 0.09,0 0.17,-0.07 0.28,-0.07 0.69,28.69 2.75,53.14 6.24,72.78 4.37,24.67 11.39,44.35 20.85,58.49 9.68,14.49 22.5,24.54 38.13,29.91 15.2,5.22 33.52,7.88 54.44,7.88 21.81,0 40.06,-2.77 54.29,-8.21 14.05,-5.39 24.88,-11 32.2,-16.7l1.47 -1.15 0.58 -331.69c0,-3.77 -1.65,-7.32 -4.66,-10l-0.02 0.01z"/>
   <path class="fil3" d="M298.54 364.15l0 218.04c-1.21,1.19 -3.73,3.2 -9.07,6.24 -5,2.84 -12.47,4.29 -22.24,4.29 -9.2,0 -17.63,-1.45 -25.01,-4.31 -6.95,-2.69 -12.93,-8.79 -17.76,-18.19 -5.13,-9.96 -9.14,-24.51 -11.93,-43.25 -2.84,-18.97 -4.27,-44.78 -4.27,-76.74 0,-7.56 -0.22,-27.67 -0.41,-53.66 -0.07,-9.72 -0.07,-20.9 -0.04,-32.42l-62.35 0c0.09,14.75 0.24,30.23 0.35,47.58 0.02,28.67 0.09,52.23 0.26,62.67 0.09,0 0.2,-0.07 0.28,-0.07 0.67,28.69 2.75,53.14 6.24,72.78 4.37,24.69 11.39,44.35 20.83,58.49 9.68,14.49 22.52,24.54 38.13,29.91 15.2,5.22 33.5,7.88 54.44,7.88 21.81,0 40.06,-2.77 54.29,-8.21 14.05,-5.37 24.88,-11 32.2,-16.7l1.47 -1.15 0.46 -253.19 -55.87 0 0 -0z"/>
   <path class="fil3" d="M249.06 474.4l25.18 0 0 -110.24 -38.92 0 0 96.52c0,7.58 6.15,13.73 13.73,13.73l0 0z"/>
  </g>
 </g>
</svg>
